# xmcd
#
# Track frame offsets:
#   150
#   2762
#   19641
#   41274
#   56903
#   75428
#   93242
#   113356
#   131572
#   150781
#   169480
#   188480
#   208629
#   220621
#   242279
#   256565
#   274523
#   293530
#   318239
#
# Disc length: 4675 seconds
#
# Revision: 0
# Processed by: cddbd v1.5.1PL2 Copyright (c) Steve Scherf et al.
# Submitted via: GXTranscoder 2.0.1939
#
DISCID=da124113
DTITLE=The Game - The Documentary
DYEAR=2005
DGENRE=RAP US
TTITLE0=Intro
TTITLE1=Westside story
TTITLE2=Dreams
TTITLE3=Hate it or love it
TTITLE4=Higher
TTITLE5=How we do
TTITLE6=Don't need your love
TTITLE7=Church for thugs
TTITLE8=Put you on the game
TTITLE9=Start from scratch
TTITLE10=The documentary
TTITLE11=Runnin'
TTITLE12=No more fun and games
TTITLE13=We ain't
TTITLE14=Where I'm from
TTITLE15=Special
TTITLE16=Don't worry
TTITLE17=Like father, like son
TTITLE18=Nelly remix
EXTD=
EXTT0=
EXTT1=
EXTT2=
EXTT3=
EXTT4=
EXTT5=
EXTT6=
EXTT7=
EXTT8=
EXTT9=
EXTT10=
EXTT11=
EXTT12=
EXTT13=
EXTT14=
EXTT15=
EXTT16=
EXTT17=
EXTT18=
PLAYORDER=
